<?xml version="1.0" encoding="UTF-8" standalone="no"?>
<!DOCTYPE svg PUBLIC "-//W3C//DTD SVG 1.1//EN" "http://www.w3.org/Graphics/SVG/1.1/DTD/svg11.dtd">
<svg width="100%" height="100%" viewBox="0 0 300 100" version="1.1" xmlns="http://www.w3.org/2000/svg" xmlns:xlink="http://www.w3.org/1999/xlink" xml:space="preserve" xmlns:serif="http://www.serif.com/" style="fill-rule:evenodd;clip-rule:evenodd;stroke-linejoin:round;stroke-miterlimit:2;">
    <path d="M290.167,0C295.598,-0 300,4.402 300,9.833C300,28.972 300,71.028 300,90.167C300,95.598 295.598,100 290.167,100C244.718,100 55.282,100 9.833,100C4.402,100 0,95.598 0,90.167C0,71.028 0,28.972 0,9.833C0,4.402 4.402,-0 9.833,-0C55.282,0 244.718,0 290.167,0Z"/>
    <g transform="matrix(0.507813,0,0,0.507813,18.2512,18.3808)">
        <path d="M63.808,0C28.806,0.004 0.004,28.806 0,63.808C0,91.984 18.4,115.864 43.448,124.48C46.584,124.872 47.752,122.912 47.752,121.344L47.752,110.384C30.144,114.304 26.232,101.776 26.232,101.776C23.488,94.336 19.184,92.376 19.184,92.376C13.312,88.464 19.568,88.464 19.568,88.464C25.832,88.856 29.36,95.12 29.36,95.12C35.232,104.904 44.232,102.16 47.76,100.6C48.144,96.296 50.104,93.56 51.672,91.992C37.576,90.424 22.704,84.944 22.704,60.28C22.704,53.24 25.048,47.752 29.36,43.056C28.96,41.88 26.616,35.232 30.144,26.616C30.144,26.616 35.624,25.048 47.752,33.272C52.84,31.704 58.328,31.312 63.808,31.312C69.288,31.312 74.768,32.096 79.856,33.272C91.992,25.056 97.472,26.616 97.472,26.616C100.992,35.232 98.64,41.88 98.248,43.448C102.558,48.143 104.937,54.299 104.904,60.672C104.904,85.336 90.024,90.424 75.944,91.992C78.288,93.944 80.248,97.856 80.248,103.728L80.248,121.344C80.248,122.912 81.416,124.864 84.552,124.48C110.511,115.73 128.076,91.202 128,63.808C127.608,28.576 99.04,0 63.808,0" style="fill:white;"/>
    </g>
    <g transform="matrix(1,0,0,1,-0.431389,8.28447)">
        <g transform="matrix(18.1486,0,0,18.1486,282.495,23)">
        </g>
        <text x="96px" y="23px" style="font-family:'Geist-Regular', 'Geist';font-size:18.149px;fill:white;">Do<tspan x="118.795px 133.658px 143.93px 148.903px 159.411px 169.574px " y="23px 23px 23px 23px 23px 23px ">wnload</tspan> th<tspan x="202.405px " y="23px ">e</tspan> co<tspan x="237.577px " y="23px ">d</tspan>e i<tspan x="267.414px " y="23px ">n</tspan></text>
    </g>
    <g transform="matrix(0.677935,0,0,0.677935,34.5082,11.388)">
        <g transform="matrix(51.6537,0,0,51.6537,360.459,92)">
        </g>
        <text x="90px" y="92px" style="font-family:'Geist-Regular', 'Geist';font-size:51.654px;fill:white;">Gi<tspan x="137.108px 157.511px 186.747px 215.673px " y="92px 92px 92px 92px ">thub</tspan>.c<tspan x="285.509px 315.159px " y="92px 92px ">om</tspan></text>
    </g>
</svg>
